<svg width="83" height="505" fill="none" xmlns="http://www.w3.org/2000/svg"><path fill-rule="evenodd" clip-rule="evenodd" d="M82 493.22H18.91v11.61H1.1v-81.592h11.387a18.596 18.596 0 01-6.448-4.504C2.06 414.45.29 408.789.29 402.242c0-3.796.593-7.261 1.986-10.223 1.277-2.837 3.135-5.202 5.604-6.964a22.207 22.207 0 013.002-1.866H1.1v-64.492H82v21.14H18.91v10.422H82v21.32H18.91v9.017c1.592-.296 3.229-.5 4.908-.615l3.593-.245 3.21 18.381 6.277-7.125c2.788-3.311 6.066-6.121 9.815-8.428 4.117-2.636 8.972-3.852 14.367-3.852 4.087 0 7.873.92 11.242 2.86 3.348 1.867 5.993 4.528 7.9 7.902l.008.013.007.012c1.886 3.396 2.753 7.269 2.753 11.483 0 4.877-.935 9.268-3.047 12.965l-.015.026-.016.026c-2.183 3.69-5.349 6.447-9.347 8.264-.632.288-1.282.552-1.95.795H82v38.78H18.91V471.9H82v21.32zM14.91 475.9v-11.43H5.1v36.36h9.81v-11.61H78V475.9H14.91zm49.91-51.738c-2.455.554-5.099.872-7.91.977l-3.415.128-3.557-18.073-7.083 8.026c-2.482 2.881-5.278 5.245-8.394 7.045l-.045.027-.046.025c-3.488 1.895-7.575 2.735-12.08 2.735-1.316 0-2.595-.078-3.83-.238v15.704h12.97v-13.59H48.7v13.59h16.12v-16.356zm4 20.356H44.7v-13.59h-9.27v13.59H14.46v-17.28H5.1v30.6H78v-30.78h-9.18v17.46zm-28.98-31.926l8.1-9.18c2.04-2.4 4.08-4.32 6.12-5.76 2.04-1.44 4.65-2.16 7.83-2.16 1.98 0 3.63.45 4.95 1.35 1.26.9 1.89 2.43 1.89 4.59 0 1.92-.57 3.48-1.71 4.68-1.2 1.14-2.88 2.01-5.04 2.61a31.485 31.485 0 01-3.46.649 44.67 44.67 0 01-4.01.341l2.25 11.43c4.8-.18 8.85-1.02 12.15-2.52 3.3-1.5 5.82-3.72 7.56-6.66 1.68-2.94 2.52-6.6 2.52-10.98 0-3.66-.75-6.84-2.25-9.54-1.56-2.76-3.69-4.89-6.39-6.39-2.7-1.56-5.79-2.34-9.27-2.34-4.8 0-8.88 1.08-12.24 3.24-3.42 2.1-6.39 4.65-8.91 7.65l-8.01 9.09c-1.68 1.92-3.3 3.39-4.86 4.41-1.62 1.02-3.66 1.53-6.12 1.53-1.92 0-3.51-.51-4.77-1.53-1.32-1.08-1.98-2.61-1.98-4.59 0-1.92.51-3.36 1.53-4.32 1.02-1.02 2.43-1.71 4.23-2.07a29.013 29.013 0 012.13-.41 39.673 39.673 0 013.99-.4l-1.98-11.34c-2.64.18-5.13.6-7.47 1.26-2.4.66-4.53 1.68-6.39 3.06-1.86 1.32-3.3 3.12-4.32 5.4-1.08 2.28-1.62 5.13-1.62 8.55 0 5.82 1.56 10.41 4.68 13.77 3.12 3.36 7.56 5.04 13.32 5.04 4.02 0 7.41-.75 10.17-2.25 2.7-1.56 5.16-3.63 7.38-6.21zM18.695 404c.422.339 1.073.632 2.245.632 1.897 0 3.139-.388 3.962-.898 1.16-.764 2.5-1.952 4.008-3.676l.009-.011.813-.922-3.452.181c-2.097.111-3.897.356-5.421.711l-.062.015-.063.012c-1.235.247-1.858.649-2.186.976l-.042.043-.044.042c-.009.007-.059.053-.119.222-.07.197-.153.568-.153 1.185 0 .985.27 1.294.505 1.488zm42.264.854c1.635-.46 2.631-1.035 3.224-1.567.295-.339.547-.855.547-1.855 0-.709-.106-1.086-.171-1.244a.642.642 0 00-.037-.077l-.006-.011c-.516-.329-1.318-.608-2.626-.608-2.58 0-4.322.58-5.523 1.428-1.666 1.176-3.421 2.799-5.251 4.933l3.224-.137c2.594-.111 4.79-.409 6.619-.862zM14.91 367.579H78v-13.32H14.91v-11.43H5.1v36.36h9.81v-11.61zM82 315.662l-80.9-1.398v-20.965l34.978-7.17L1.1 278.647v-20.481l80.9-1.498v17.89l-18.835.401L82 278.807v14.532l-19.16 3.967 19.16.373v17.983zm-54.85-15.05L78 290.082v-8.01l-50.67-10.35 50.67-1.08v-9.9l-72.9 1.35v13.32l50.49 10.8-50.49 10.35v13.77l72.9 1.26v-9.99l-50.85-.99zm52.324-85.02l.005.009c2.486 3.883 3.511 8.878 3.511 14.576 0 5.606-1.036 10.541-3.492 14.456-2.421 3.859-5.913 6.594-10.29 8.199-4.147 1.521-8.895 2.225-14.158 2.225H27.78c-5.253 0-9.957-.702-14.008-2.236-4.327-1.616-7.758-4.367-10.11-8.237-2.373-3.903-3.372-8.82-3.372-14.407 0-5.673.987-10.642 3.38-14.512 2.347-3.853 5.765-6.596 10.073-8.211 4.063-1.605 8.779-2.337 14.037-2.337h27.36c5.22 0 9.95.739 14.104 2.328 4.307 1.61 7.762 4.334 10.224 8.139l.006.008zm-64.294-4.405c-3.54 1.32-6.24 3.51-8.1 6.57-1.86 3-2.79 7.14-2.79 12.42 0 5.16.93 9.27 2.79 12.33 1.86 3.06 4.56 5.25 8.1 6.57 3.48 1.32 7.68 1.98 12.6 1.98h27.27c4.92 0 9.18-.66 12.78-1.98 3.6-1.32 6.36-3.51 8.28-6.57 1.92-3.06 2.88-7.17 2.88-12.33 0-5.28-.96-9.42-2.88-12.42-1.98-3.06-4.74-5.25-8.28-6.57-3.6-1.38-7.83-2.07-12.69-2.07H27.78c-4.92 0-9.12.69-12.6 2.07zm49.608 16.83l-.038-.043c-.293-.33-.798-.69-1.808-.906-1.367-.293-2.912-.451-4.652-.451H24.72c-1.812 0-3.343.16-4.622.445-.918.204-1.339.532-1.575.816l-.077.092-.079.084c.002.001-.357.452-.357 2.123 0 1.557.362 2.036.43 2.112l.042.048.04.049c.237.283.658.612 1.576.816 1.279.284 2.81.445 4.622.445h33.57c1.75 0 3.317-.131 4.714-.375.968-.218 1.459-.569 1.746-.893.053-.059.43-.55.43-2.202 0-1.671-.358-2.122-.357-2.123l-.035-.037zm-1.008 9.18c-1.68.3-3.51.45-5.49.45H24.72c-2.04 0-3.87-.18-5.49-.54-1.62-.36-2.88-1.08-3.78-2.16-.96-1.08-1.44-2.67-1.44-4.77 0-2.22.48-3.84 1.44-4.86.9-1.08 2.16-1.8 3.78-2.16 1.62-.36 3.45-.54 5.49-.54h33.57c1.98 0 3.81.18 5.49.54 1.68.36 3 1.08 3.96 2.16.96 1.02 1.44 2.64 1.44 4.86 0 2.16-.48 3.78-1.44 4.86-.96 1.08-2.28 1.8-3.96 2.16zM82 203.264H1.1v-15.913l26.001-11.087H1.1v-18.98H82v15.505l-27.218 11.135H82v19.34zm-47.56-15.34L78 170.104v-8.82H5.1v10.98h41.58L5.1 189.994v9.27H78v-11.34H34.44zM82 153.861H1.1v-21.14h74.48L1.1 117.825V97.047l73.161-14.633H1.1v-21.32h63.72v-15.39c-2.455.555-5.099.873-7.91.978l-3.415.128-3.557-18.073-7.066 8.007-.017.02c-2.482 2.88-5.278 5.244-8.394 7.044l-.045.027-.046.024c-3.488 1.896-7.575 2.736-12.08 2.736-6.568 0-12.19-1.944-16.251-6.318C2.06 35.993.29 30.332.29 23.785c0-3.796.593-7.261 1.986-10.223C3.553 10.724 5.412 8.36 7.88 6.598c2.275-1.681 4.844-2.899 7.666-3.676 2.624-.74 5.385-1.2 8.272-1.398l3.593-.245 3.21 18.38 6.277-7.124c2.788-3.31 6.066-6.121 9.815-8.428C50.83 1.471 55.685.255 61.08.255c4.087 0 7.873.92 11.242 2.86 3.348 1.867 5.993 4.528 7.9 7.902l.008.013.007.012c1.886 3.396 2.753 7.27 2.753 11.483 0 4.877-.935 9.268-3.047 12.965l-.015.026-.016.026c-2.047 3.459-4.957 6.099-8.606 7.912H82v57.995l-16.83 2.88v5.961L82 113.26v40.601zm-20.83-40.215v-12.69L78 98.076v-12.33l-72.9 14.58v14.22l72.9 14.58v-12.51l-16.83-2.97zM70.35 6.595c-2.7-1.56-5.79-2.34-9.27-2.34-4.8 0-8.88 1.08-12.24 3.24-3.42 2.1-6.39 4.65-8.91 7.65l-8.01 9.09c-1.68 1.92-3.3 3.39-4.86 4.41-1.62 1.02-3.66 1.53-6.12 1.53-1.92 0-3.51-.51-4.77-1.53-1.32-1.08-1.98-2.61-1.98-4.59 0-1.92.51-3.36 1.53-4.32 1.02-1.02 2.43-1.71 4.23-2.07a28.859 28.859 0 012.13-.41 39.67 39.67 0 013.99-.4l-1.98-11.34c-2.64.18-5.13.6-7.47 1.26-2.4.66-4.53 1.68-6.39 3.06-1.86 1.32-3.3 3.12-4.32 5.4-1.08 2.28-1.62 5.13-1.62 8.55 0 5.82 1.56 10.41 4.68 13.77 3.12 3.36 7.56 5.04 13.32 5.04 4.02 0 7.41-.75 10.17-2.25 2.7-1.56 5.16-3.63 7.38-6.21l8.1-9.18c2.04-2.4 4.08-4.32 6.12-5.76 2.04-1.44 4.65-2.16 7.83-2.16 1.98 0 3.63.45 4.95 1.35 1.26.9 1.89 2.43 1.89 4.59 0 1.92-.57 3.48-1.71 4.68-1.2 1.14-2.88 2.01-5.04 2.61a31.366 31.366 0 01-3.46.649 44.81 44.81 0 01-4.01.341l2.25 11.43c4.8-.18 8.85-1.02 12.15-2.52 3.3-1.5 5.82-3.72 7.56-6.66 1.68-2.94 2.52-6.6 2.52-10.98 0-3.66-.75-6.84-2.25-9.54-1.56-2.76-3.69-4.89-6.39-6.39zm-9.392 19.802c1.635-.46 2.632-1.035 3.225-1.566.295-.34.547-.856.547-1.856 0-.71-.106-1.086-.171-1.245a.664.664 0 00-.043-.087c-.516-.329-1.318-.608-2.626-.608-2.58 0-4.322.58-5.523 1.428-1.666 1.176-3.421 2.8-5.251 4.933l3.224-.137c2.594-.11 4.79-.41 6.618-.862zm-42.263-.854c.422.338 1.073.632 2.245.632 1.897 0 3.138-.388 3.962-.898 1.16-.764 2.5-1.952 4.008-3.676l.009-.01.813-.923-3.452.181c-2.097.11-3.897.356-5.421.711l-.062.015-.063.012c-1.235.247-1.858.65-2.186.976l-.042.043-.044.042c-.006.005-.057.047-.119.222-.07.197-.153.568-.153 1.185 0 .985.27 1.294.505 1.488zM68.82 65.094H5.1v13.32H78v-30.96h-9.18v17.64zm-16.11 37.302l-30.6 4.95 30.6 4.95v-9.9zm-4 5.201v-.502l-1.551.251 1.551.251zM78 335.837v-13.14H5.1v13.14H78zm0-185.976v-13.14H5.1v13.14H78z" fill="#FF812E"/></svg>