<svg width="16" height="16" fill="none" xmlns="http://www.w3.org/2000/svg"><path fill-rule="evenodd" clip-rule="evenodd" d="M6.72 1H3.048A2.048 2.048 0 001 3.048V6.72c0 .272.108.532.3.724L8.256 14.4c.8.8 2.097.8 2.896 0l3.248-3.248c.8-.8.8-2.096 0-2.896L7.444 1.3A1.024 1.024 0 006.72 1z" fill="#76A713"/><path fill-rule="evenodd" clip-rule="evenodd" d="M6.72 1.5c.139 0 .272.055.37.153l6.957 6.957a1.548 1.548 0 010 2.189l-3.248 3.248a1.548 1.548 0 01-2.19 0L1.654 7.09a.524.524 0 01-.154-.37V3.048c0-.855.693-1.548 1.548-1.548H6.72zm0-1H3.048A2.548 2.548 0 00.5 3.048V6.72c0 .404.16.792.446 1.078l6.956 6.956a2.548 2.548 0 003.604 0l3.248-3.248a2.548 2.548 0 000-3.604L7.798.946A1.524 1.524 0 006.72.5z" fill="#76A713"/><path d="M2.536 3.56a1.024 1.024 0 112.048 0 1.024 1.024 0 01-2.048 0z" fill="#fff"/></svg>