<svg width="133" height="321" fill="none" xmlns="http://www.w3.org/2000/svg"><path d="M105.11 308.04l-3.388-2.126 3.388 2.126zm-60.93 6.57l1.419-3.74-.01-.004-.011-.004-1.398 3.748zm-8.1-6.57l3.418-2.078-3.418 2.078zm0-24.75l3.4 2.108.009-.015.01-.015-3.419-2.078zm8.1-6.57l1.398 3.748.038-.014.038-.016-1.474-3.718zm52.65 0l-1.432 3.735.017.007.017.006 1.398-3.748zm8.28 6.57l3.369-2.156-.005-.009-.006-.008-3.358 2.173zm-8.37 7.56l-2.99 2.657.038.043.04.041 2.912-2.741zm-3.96-2.16l.838-3.911-.838 3.911zm-44.55 0l-.868-3.905.868 3.905zm-3.78 2.16l2.913 2.741.083-.087.077-.093-3.073-2.561zm0 9.63l3.073-2.561-.041-.049-.042-.047-2.99 2.657zm3.78 2.16l-.868 3.905.868-3.905zm44.55.09l.703 3.938.068-.012.067-.015-.838-3.911zm3.96-2.16l-2.99-2.657 2.99 2.657zm7.25-4.86c0 4.714-.884 7.998-2.268 10.204l6.776 4.252c2.456-3.914 3.492-8.85 3.492-14.456h-8zm-2.268 10.204c-1.419 2.261-3.447 3.906-6.269 4.94l2.754 7.512c4.378-1.606 7.87-4.341 10.291-8.2l-6.776-4.252zm-6.269 4.94c-3.054 1.12-6.826 1.736-11.403 1.736v8c5.263 0 10.01-.704 14.157-2.224l-2.754-7.512zM84.05 312.59H56.78v8h27.27v-8zm-27.27 0c-4.583 0-8.275-.617-11.181-1.72l-2.838 7.48c4.053 1.537 8.762 2.24 14.019 2.24v-8zm-11.203-1.728c-2.747-1.025-4.713-2.652-6.079-4.9l-6.836 4.156c2.354 3.872 5.788 6.625 10.12 8.24l2.796-7.496zm-6.079-4.9c-1.347-2.216-2.208-5.52-2.208-10.252h-8c0 5.588.999 10.504 3.372 14.408l6.836-4.156zM37.29 295.71c0-4.88.87-8.185 2.19-10.312l-6.8-4.216c-2.4 3.873-3.39 8.848-3.39 14.528h8zm2.208-10.342c1.366-2.248 3.332-3.875 6.08-4.9l-2.796-7.496c-4.332 1.615-7.766 4.368-10.12 8.24l6.836 4.156zm6.157-4.93c2.888-1.145 6.56-1.788 11.125-1.788v-8c-5.275 0-10.003.737-14.075 2.352l2.95 7.436zm11.125-1.788h27.36v-8H56.78v8zm27.36 0c4.493 0 8.217.639 11.258 1.805l2.864-7.47c-4.16-1.594-8.895-2.335-14.122-2.335v8zm11.293 1.818c2.765 1.031 4.824 2.685 6.319 4.995l6.716-4.346c-2.465-3.81-5.926-6.536-10.24-8.145l-2.795 7.496zm6.308 4.978c1.354 2.117 2.249 5.402 2.249 10.264h8c0-5.698-1.025-10.693-3.511-14.576l-6.738 4.312zm.439 10.264c0-2.668-.557-5.508-2.527-7.601l-5.826 5.482c-.05-.053.353.347.353 2.119h8zm-2.45-7.517c-1.627-1.83-3.761-2.911-6.112-3.414l-1.676 7.822c1.01.217 1.515.576 1.808.906l5.98-5.314zm-6.112-3.414c-1.993-.427-4.108-.629-6.328-.629v8c1.74 0 3.285.158 4.652.451l1.676-7.822zm-6.328-.629H53.72v8h33.57v-8zm-33.57 0c-2.268 0-4.397.199-6.358.635l1.736 7.81c1.279-.284 2.81-.445 4.622-.445v-8zm-6.358.635c-2.322.516-4.421 1.628-5.985 3.504l6.146 5.122c.236-.284.656-.612 1.575-.816l-1.736-7.81zm-5.825 3.324c-1.97 2.093-2.527 4.933-2.527 7.601h8c0-1.772.403-2.172.353-2.119l-5.826-5.482zm-2.527 7.601c0 2.643.598 5.344 2.45 7.427l5.98-5.314c-.068-.077-.43-.556-.43-2.113h-8zm2.367 7.331c1.564 1.876 3.663 2.988 5.985 3.504l1.736-7.81c-.919-.204-1.339-.532-1.575-.816l-6.146 5.122zm5.985 3.504c1.961.436 4.09.635 6.358.635v-8c-1.812 0-3.343-.161-4.622-.445l-1.736 7.81zm6.358.635h33.57v-8H53.72v8zm33.57 0c2.18 0 4.248-.165 6.193-.512l-1.406-7.876c-1.415.253-3.006.388-4.787.388v8zm6.328-.539c2.35-.503 4.485-1.584 6.112-3.414l-5.98-5.314c-.293.33-.799.689-1.808.906l1.676 7.822zm6.112-3.414c1.867-2.101 2.45-4.849 2.45-7.517h-8c0 1.652-.377 2.144-.43 2.203l5.98 5.314zm7.27-38.43v4h4v-4h-4zm-72.9 0h-4v4h4v-4zm1.8-29.88l3.767 1.345.014-.04.014-.04-3.795-1.265zm5.94-7.74l2.1 3.404.026-.016.026-.016-2.152-3.372zm19.44-1.89l-.9 3.898.9-3.898zm6.03 2.79l-2.471 3.145.008.006.007.007 2.456-3.158zm3.78 5.31l-3.72 1.469 1.328 3.366 3.482-.986-1.09-3.849zm35.91-10.17h4v-5.29l-5.09 1.441 1.09 3.849zm0 13.32l1.022 3.867 2.978-.786v-3.081h-4zm-33.39 8.82l-1.022-3.867-2.978.787v3.08h4zm0 6.12h-4v4h4v-4zm33.39 0h4v-4h-4v4zm-41.76 0v4h4v-4h-4zm-1.08-10.26l3.606-1.731-.014-.029-.014-.029-3.578 1.789zm-3.6-3.33l1.51-3.704-.024-.01-.023-.009-1.463 3.723zm-14.58 1.08l2.315 3.262.06-.043.059-.044-2.434-3.175zm-2.79 12.51h-4v4h4v-4zm63.81 9.32H34.1v8H107v-8zm-68.9 4v-17.46h-8v17.46h8zm0-17.46c0-4.623.567-8.276 1.567-11.075l-7.534-2.69c-1.4 3.921-2.033 8.548-2.033 13.765h8zm1.595-11.155c.871-2.614 2.296-4.398 4.245-5.601l-4.2-6.808c-3.69 2.277-6.226 5.654-7.635 9.879l7.59 2.53zm4.297-5.633c1.949-1.244 4.944-2.072 9.368-2.072v-8c-5.296 0-9.98.972-13.672 3.328l4.304 6.744zm9.368-2.072c2.702 0 5.032.249 7.02.708l1.8-7.795c-2.693-.622-5.642-.913-8.82-.913v8zm7.02.708c1.84.424 3.295 1.123 4.459 2.037l4.942-6.29c-2.196-1.726-4.76-2.887-7.602-3.542l-1.798 7.795zm4.474 2.05c.954.741 1.827 1.877 2.515 3.621l7.442-2.938c-1.112-2.816-2.76-5.22-5.045-6.998l-4.912 6.315zm7.326 6.001l35.91-10.17-2.18-7.698L70 229.538l2.18 7.698zM103 223.217v13.32h8v-13.32h-8zm2.978 9.453l-33.39 8.82 2.044 7.734 33.39-8.82-2.044-7.734zM69.61 245.357v6.12h8v-6.12h-8zm4 10.12H107v-8H73.61v8zm29.39-4v13.32h8v-13.32h-8zm-33.76 0v-4.14h-8v4.14h8zm0-4.14c0-2.882-.391-5.595-1.474-7.851l-7.212 3.462c.357.744.686 2.111.686 4.389h8zm-1.502-7.909c-1.216-2.431-3.153-4.22-5.669-5.245l-3.018 7.408c.724.295 1.187.726 1.531 1.415l7.156-3.578zm-5.715-5.264c-2.3-.903-4.97-1.267-7.853-1.267v8c2.277 0 3.867.297 4.927.713l2.926-7.446zm-7.853-1.267c-4.04 0-7.812.74-10.624 2.896l4.868 6.349c.788-.605 2.476-1.245 5.756-1.245v-8zm-10.505 2.808c-3.461 2.456-4.475 6.691-4.475 10.912h8c0-3.338.846-4.204 1.105-4.388l-4.63-6.524zm-4.475 10.912v4.86h8v-4.86h-8zm4 8.86h22.05v-8H43.19v8zm61.74-47.969l-3.241-2.345 3.241 2.345zm-8.64 6.12l1.21 3.812.037-.011.036-.013-1.283-3.788zm-51.3 0l1.21-3.813-1.21 3.813zm-8.64-6.3l3.338-2.203-.005-.008-.005-.008-3.328 2.219zm-.54-24.48l3.473 1.984-3.473-1.984zm7.29-6.3l1.473 3.719.043-.017.042-.018-1.558-3.684zm15.21-1.98h4v-4h-4v4zm0 12.69v4h4v-4h-4zm-10.17.54l.703 3.938.068-.012.067-.015-.838-3.911zm-3.78 1.98l2.918 2.736.088-.094.082-.099-3.088-2.543zm.36 9.9l-2.751 2.904.041.039.043.038 2.667-2.981zm4.5 1.98l-.637 3.949.062.01.063.008.512-3.967zm43.2-.27l.881 3.902-.881-3.902zm4.32-2.34l2.981 2.667.04-.045.039-.046-3.06-2.576zm-.18-9.81l-2.904 2.751 2.904-2.751zm-4.5-2.34l-.97 3.88.057.015.058.012.855-3.907zm-13.68-.72v-4h-4v4h4zm0 7.83v4h4v-4h-4zm-8.37 0h-4v4h4v-4zm0-19.8v-4h-4v4h4zm36.99 0h4v-4h-4v4zm0 8.55l.545 3.963 3.455-.475v-3.488h-4zm-7.2.99l-.545-3.963-14.982 2.06 14.041 5.617 1.486-3.714zm5.94 4.41l3.152-2.463-.005-.006-.005-.007-3.142 2.476zm-1.75 7.92c0 4.27-.91 7.163-2.301 9.085l6.482 4.689c2.689-3.717 3.819-8.444 3.819-13.774h-8zm-2.301 9.085c-1.492 2.063-3.644 3.647-6.682 4.676l2.566 7.577c4.402-1.49 8.01-3.986 10.598-7.564l-6.482-4.689zm-6.61 4.652c-3.294 1.046-7.309 1.613-12.109 1.613v8c5.4 0 10.266-.634 14.53-1.988l-2.42-7.625zm-12.109 1.613H58.49v8h24.48v-8zm-24.48 0c-4.931 0-9.003-.569-12.29-1.613l-2.42 7.625c4.272 1.357 9.201 1.988 14.71 1.988v-8zm-12.29-1.613c-3.003-.953-5.089-2.535-6.512-4.69l-6.676 4.406c2.537 3.844 6.211 6.463 10.768 7.909l2.42-7.625zm-6.522-4.706c-1.445-2.168-2.388-5.492-2.388-10.381h-8c0 5.79 1.097 10.867 3.732 14.819l6.656-4.438zm-2.388-10.381c0-4.589.784-7.779 1.993-9.896l-6.946-3.969c-2.15 3.764-3.047 8.494-3.047 13.865h8zm1.993-9.896c1.225-2.143 2.945-3.636 5.29-4.565l-2.947-7.438c-4.014 1.591-7.154 4.297-9.289 8.034l6.946 3.969zm5.375-4.6c2.494-1.055 5.74-1.664 9.872-1.664v-8c-4.869 0-9.242.711-12.989 2.296l3.117 7.368zm9.872-1.664h3.78v-8h-3.78v8zm-.22-4v12.69h8v-12.69h-8zm4 8.69h-4.14v8h4.14v-8zm-4.14 0c-2.528 0-4.834.193-6.868.629l1.676 7.822c1.326-.284 3.04-.451 5.192-.451v-8zm-6.733.602c-2.337.418-4.563 1.43-6.165 3.375l6.176 5.086c.078-.095.372-.403 1.395-.585l-1.406-7.876zm-5.995 3.182c-1.94 2.069-2.432 4.92-2.432 7.506h8c0-.859.09-1.425.186-1.768.095-.334.167-.357.082-.266l-5.836-5.472zm-2.432 7.506c0 2.9.701 5.895 2.959 8.034l5.502-5.808c-.022-.021-.461-.447-.461-2.226h-8zm3.043 8.111c1.83 1.637 4.09 2.554 6.53 2.948l1.274-7.898c-1.28-.207-2.02-.609-2.47-1.012l-5.334 5.962zm6.655 2.966c2.057.265 4.27.393 6.632.393v-8c-2.079 0-3.945-.113-5.608-.327l-1.024 7.934zm6.632.393h30.51v-8H55.34v8zm30.51 0c2.728 0 5.227-.226 7.451-.728l-1.762-7.804c-1.496.338-3.377.532-5.689.532v8zm7.451-.728c2.47-.558 4.722-1.677 6.42-3.575l-5.962-5.334c-.342.382-.97.823-2.22 1.105l1.762 7.804zm6.499-3.666c1.774-2.107 2.38-4.774 2.38-7.436h-8c0 1.538-.354 2.11-.5 2.283l6.12 5.153zm2.38-7.436c0-2.794-.704-5.577-2.716-7.701l-5.808 5.502c.148.156.524.673.524 2.199h8zm-2.716-7.701c-1.756-1.854-4.043-2.949-6.55-3.497l-1.709 7.815c1.335.292 2.047.758 2.451 1.184l5.808-5.502zm-6.434-3.47c-2.322-.58-4.944-.839-7.81-.839v8c2.414 0 4.352.221 5.87.6l1.94-7.761zm-7.81-.839h-6.84v8h6.84v-8zm-10.84 4v7.83h8v-7.83h-8zm4 3.83h-8.37v8h8.37v-8zm-4.37 4v-19.8h-8v19.8h8zm-4-15.8H107v-8H70.01v8zm32.99-4v8.55h8v-8.55h-8zm3.455 4.587l-7.2.99 1.09 7.926 7.2-.99-1.09-7.926zm-8.14 8.667c1.766.706 3.168 1.757 4.283 3.171l6.284-4.951c-2.005-2.545-4.563-4.435-7.596-5.648l-2.972 7.428zm4.273 3.158c.775.993 1.402 2.657 1.402 5.458h8c0-3.919-.873-7.535-3.098-10.383l-6.304 4.925zM107 167.764l-.784 3.923 4.784.957v-4.88h-4zm-72.9-14.58h-4v3.28l3.215.643.785-3.923zm0-14.22l-.785-3.922-3.215.643v3.279h4zm72.9-14.58h4v-4.879l-4.784.957.784 3.922zm0 12.33l.675 3.943 3.325-.569v-3.374h-4zm-16.83 2.88l-.675-3.942-3.325.569v3.373h4zm0 12.69h-4v3.356l3.305.584.695-3.94zm16.83 2.97h4v-3.355l-3.305-.584-.695 3.939zm-25.29-4.32l-.639 3.949 4.639.751v-4.7h-4zm0-9.9h4v-4.699l-4.639.751.639 3.948zm-30.6 4.95l-.639-3.948v7.897l.639-3.949zm56.674 17.858l-72.9-14.58-1.569 7.845 72.901 14.58 1.568-7.845zM38.1 153.184v-14.22h-8v14.22h8zm-3.215-10.297l72.899-14.58-1.568-7.845-72.9 14.58 1.569 7.845zM103 124.384v12.33h8v-12.33h-8zm3.325 8.388l-16.83 2.88 1.35 7.885 16.83-2.88-1.35-7.885zm-20.155 6.822v12.69h8v-12.69h-8zm3.305 16.63l16.83 2.97 1.39-7.879-16.83-2.97-1.39 7.879zm13.525-.97v12.51h8v-12.51h-8zm-17.29-4.32v-9.9h-8v9.9h8zm-4.639-13.848l-30.6 4.95 1.278 7.897 30.6-4.95-1.278-7.897zm-30.6 12.847l30.6 4.95 1.278-7.897-30.6-4.95-1.278 7.897zM107 117.053v4h4v-4h-4zm-72.9 0h-4v4h4v-4zm0-9.27l-1.569-3.679-2.431 1.036v2.643h4zm41.58-17.73l1.569 3.68-1.569-7.68v4zm-41.58 0h-4v4h4v-4zm0-10.98v-4h-4v4h4zm72.9 0h4v-4h-4v4zm0 8.82l1.515 3.702L111 90.578v-2.685h-4zm-43.56 17.82l-1.514-3.702 1.514 7.702v-4zm43.56 0h4v-4h-4v4zm0 7.34H34.1v8H107v-8zm-68.9 4v-9.27h-8v9.27h8zm-2.431-5.591l41.58-17.73-3.138-7.358-41.58 17.73 3.138 7.358zM75.68 86.053H34.1v8h41.58v-8zm-37.58 4v-10.98h-8v10.98h8zm-4-6.98H107v-8H34.1v8zm68.9-4v8.82h8v-8.82h-8zm2.485 5.118l-43.56 17.82 3.03 7.404 43.56-17.82-3.03-7.404zM63.44 109.713H107v-8H63.44v8zm39.56-4v11.34h8v-11.34h-8zm4-38.063v4h4v-4h-4zm-72.9 0h-4v4h4v-4zm0-13.14v-4h-4v4h4zm72.9 0h4v-4h-4v4zm0 9.14H34.1v8H107v-8zm-68.9 4V54.51h-8v13.14h8zm-4-9.14H107v-8H34.1v8zm68.9-4v13.14h8V54.51h-8zm1.84-18.305l3.277 2.294.011-.016.01-.015-3.298-2.263zm-8.55 6.3l1.246 3.8.01-.002.009-.003-1.265-3.795zm-51.57 0l1.246-3.801-1.246 3.8zm-8.46-6.3l-3.358 2.173.01.015.01.015 3.338-2.203zm-.36-24.39l3.404 2.1.026-.042.025-.043-3.455-2.015zm7.29-6.12l1.412 3.742-1.412-3.742zm17.19-1.8h4v-4h-4v4zm0 12.78v4h4v-4h-4zm-11.88.36l.426 3.977.07-.007.07-.01-.566-3.96zm-3.96 1.71l2.647 3 .093-.083.088-.089-2.828-2.828zm.09 9.81l2.828-2.829-2.828 2.829zm4.23 1.98l.68-3.942-.011-.002-.011-.002-.658 3.946zm44.19-.18l.939 3.888.015-.004.016-.004-.97-3.88zm3.87-2.25l3.073 2.56.076-.091.071-.096-3.22-2.373zm-.27-9.27l-2.657 2.99.005.004.005.005 2.647-3zm-4.23-1.8l.546-3.963-.546 3.963zM80 16.675h-4v4h4v-4zm0-12.78v-4h-4v4h4zm17.37 1.71l1.306-3.78-.01-.005-.01-.003-1.286 3.788zm7.83 6.03l3.339-2.203-.005-.008-.006-.008-3.328 2.219zm-1.21 11.97c0 4.87-.966 8.176-2.448 10.336l6.596 4.527c2.717-3.96 3.852-9.054 3.852-14.863h-8zm-2.427 10.306c-1.589 2.27-3.72 3.86-6.538 4.8l2.53 7.589c4.383-1.461 7.951-4.071 10.562-7.801l-6.554-4.588zm-6.52 4.793c-3.177 1.042-6.943 1.6-11.353 1.6v8c5.07 0 9.704-.64 13.846-1.998l-2.492-7.602zm-11.353 1.6H57.68v8h26.01v-8zm-26.01 0c-4.674 0-8.554-.564-11.714-1.6l-2.492 7.602c4.16 1.364 8.92 1.999 14.206 1.999v-8zm-11.714-1.6c-2.868-.94-4.922-2.512-6.368-4.703l-6.676 4.407c2.514 3.81 6.1 6.438 10.552 7.898l2.492-7.602zm-6.348-4.672c-1.409-2.177-2.328-5.52-2.328-10.427h-8c0 5.772 1.06 10.83 3.612 14.773l6.716-4.346zM37.29 23.605c0-4.656.816-7.749 2.014-9.69l-6.808-4.2c-2.283 3.698-3.206 8.466-3.206 13.89h8zm2.065-9.775c1.208-2.07 2.908-3.51 5.247-4.393l-2.824-7.485C37.757 3.47 34.598 6.11 32.445 9.8l6.91 4.031zm5.247-4.393c2.637-.995 5.83-1.542 9.658-1.542v-8c-4.573 0-8.758.652-12.482 2.057l2.824 7.485zm9.658-1.542h6.12v-8h-6.12v8zm2.12-4v12.78h8V3.895h-8zm4 8.78h-6.3v8h6.3v-8zm-6.3 0c-2.193 0-4.245.129-6.146.4l1.132 7.92c1.46-.209 3.127-.32 5.014-.32v-8zm-6.006.383c-2.36.252-4.611 1.107-6.362 2.858l5.656 5.657c.169-.168.559-.454 1.558-.56l-.852-7.955zm-6.18 2.688c-2.316 2.042-2.884 5.088-2.884 7.769h8c0-.866.1-1.395.191-1.681.085-.264.127-.214-.014-.09l-5.293-5.998zm-2.884 7.769c0 2.823.661 5.738 2.792 7.868l5.656-5.657c-.03-.03-.448-.474-.448-2.211h-8zm2.792 7.868c1.749 1.75 3.997 2.697 6.4 3.097l1.316-7.89c-1.197-.2-1.769-.573-2.06-.864l-5.656 5.657zm6.378 3.094c2.013.347 4.227.508 6.62.508v-8c-2.047 0-3.793-.14-5.26-.392l-1.36 7.884zm6.62.508h31.68v-8H54.8v8zm31.68 0c2.822 0 5.353-.222 7.509-.742l-1.878-7.777c-1.325.32-3.173.519-5.631.519v8zm7.54-.75c2.31-.577 4.414-1.7 5.973-3.57l-6.146-5.12c-.241.289-.716.666-1.767.93l1.94 7.76zm6.12-3.757c1.499-2.035 2.04-4.489 2.04-6.963h-8c0 1.365-.3 1.972-.48 2.217l6.44 4.746zm2.04-6.963c0-2.662-.587-5.653-2.884-7.68l-5.293 6c-.125-.112-.087-.154-.007.088.086.265.184.765.184 1.592h8zm-2.873-7.67c-1.788-1.59-3.987-2.448-6.34-2.773l-1.094 7.925c1.127.156 1.748.498 2.12.828l5.314-5.98zm-6.34-2.773c-1.957-.27-4.094-.397-6.397-.397v8c2.017 0 3.78.112 5.303.322l1.093-7.925zm-6.397-.397H80v8h6.57v-8zm-2.57 4V3.895h-8v12.78h8zm-4-8.78h5.85v-8H80v8zm5.85 0c3.975 0 7.368.525 10.235 1.498l2.57-7.576C94.802.51 90.515-.105 85.85-.105v8zm10.214 1.49c2.481.858 4.377 2.323 5.808 4.469l6.656-4.438c-2.409-3.614-5.733-6.169-9.852-7.592l-2.612 7.562zm5.797 4.452c1.257 1.906 2.129 5.006 2.129 9.768h8c0-5.559-.988-10.439-3.451-14.173l-6.678 4.405z" fill="#76A713" fill-opacity=".2"/></svg>