<svg width="83" height="321" fill="none" xmlns="http://www.w3.org/2000/svg"><path fill-rule="evenodd" clip-rule="evenodd" d="M79.474 281.126l.005.008c2.486 3.884 3.511 8.878 3.511 14.576 0 5.606-1.036 10.542-3.492 14.456-2.421 3.859-5.913 6.595-10.29 8.2-4.147 1.52-8.895 2.224-14.158 2.224H27.78c-5.253 0-9.957-.701-14.008-2.236-4.327-1.616-7.758-4.367-10.11-8.236C1.289 306.214.29 301.298.29 295.71c0-5.672.987-10.641 3.38-14.512 2.347-3.853 5.765-6.596 10.074-8.211 4.062-1.604 8.778-2.337 14.036-2.337h27.36c5.22 0 9.95.739 14.104 2.329 4.307 1.609 7.762 4.333 10.224 8.138l.006.009zM15.18 276.72c-3.54 1.32-6.24 3.51-8.1 6.57-1.86 3-2.79 7.14-2.79 12.42 0 5.16.93 9.27 2.79 12.33 1.86 3.06 4.56 5.25 8.1 6.57 3.48 1.32 7.68 1.98 12.6 1.98h27.27c4.92 0 9.18-.66 12.78-1.98 3.6-1.32 6.36-3.51 8.28-6.57 1.92-3.06 2.88-7.17 2.88-12.33 0-5.28-.96-9.42-2.88-12.42-1.98-3.06-4.74-5.25-8.28-6.57-3.6-1.38-7.83-2.07-12.69-2.07H27.78c-4.92 0-9.12.69-12.6 2.07zm49.608 16.83l-.038-.042c-.293-.331-.798-.69-1.808-.906-1.367-.293-2.912-.452-4.652-.452H24.72c-1.812 0-3.343.161-4.622.445-.918.204-1.339.533-1.575.816l-.077.093-.079.083c.002.001-.357.452-.357 2.123 0 1.557.362 2.036.43 2.113l.042.048.04.049c.237.283.658.612 1.576.816 1.279.284 2.81.444 4.622.444h33.57c1.75 0 3.318-.13 4.714-.374.968-.218 1.459-.57 1.746-.893.053-.059.43-.551.43-2.203 0-1.671-.358-2.122-.357-2.123l-.035-.037zM82 268.797H1.1v-21.46c0-5.199.628-9.813 2.019-13.725 1.408-4.197 3.93-7.553 7.595-9.823 3.687-2.344 8.362-3.312 13.646-3.312 3.178 0 6.128.292 8.82.913 2.838.655 5.399 1.813 7.593 3.536a14.94 14.94 0 013.374 3.722L82 217.927v21.691l-29.753 7.859H82v21.32zm-37.39-23.44l33.39-8.82v-13.32l-35.91 10.17c-.9-2.28-2.16-4.05-3.78-5.31-1.68-1.32-3.69-2.25-6.03-2.79-2.34-.54-4.98-.81-7.92-.81-4.86 0-8.7.9-11.52 2.7-2.82 1.74-4.8 4.32-5.94 7.74-1.2 3.36-1.8 7.5-1.8 12.42v17.46H78v-13.32H44.61v-6.12zm-25.255-3.17l-.06.042c-.259.184-1.105 1.05-1.105 4.388v.86h14.05v-.14c0-2.249-.32-3.61-.672-4.36-.34-.665-.794-1.086-1.495-1.376-1.06-.412-2.643-.704-4.903-.704-3.28 0-4.968.64-5.756 1.245l-.059.045zm12.205-4.3c1.62.66 2.82 1.77 3.6 3.33.72 1.5 1.08 3.54 1.08 6.12v4.14H14.19v-4.86c0-3.78.93-6.33 2.79-7.65 1.8-1.38 4.53-2.07 8.19-2.07 2.58 0 4.71.33 6.39.99zm36.977-20.106l-.037.011c-4.264 1.354-9.13 1.988-14.53 1.988H29.49c-5.509 0-10.438-.631-14.71-1.988-4.554-1.445-8.226-4.061-10.763-7.901C1.386 205.94.29 200.866.29 195.08c0-5.371.897-10.101 3.047-13.865 2.128-3.723 5.252-6.424 9.246-8.017 3.737-1.572 8.096-2.278 12.947-2.278h7.78v20.69h-8.14c-2.152 0-3.866.167-5.192.451l-.067.014-.068.012c-1.023.183-1.317.491-1.395.586l-.082.099-.059.063a1.449 1.449 0 00-.11.297c-.098.343-.187.909-.187 1.768 0 1.584.348 2.095.44 2.203.448.379 1.161.749 2.349.948 1.646.209 3.49.319 5.541.319h30.51c2.312 0 4.193-.194 5.689-.532 1.194-.27 1.82-.684 2.172-1.053.16-.212.469-.806.469-2.245 0-1.526-.376-2.044-.524-2.199-.404-.427-1.117-.892-2.45-1.184l-.059-.012-.057-.015c-1.518-.379-3.456-.6-5.87-.6h-2.84v7.83H37.01v-27.8h32.811L1.1 156.816v-20.779l73.161-14.632H1.1v-15.913l26.001-11.087H1.1v-18.98H82V90.93l-27.218 11.135H82v38.375l-16.83 2.88v5.96L82 152.25v34.347l-1.555.214c1.818 2.718 2.545 6.042 2.545 9.619 0 5.33-1.13 10.057-3.82 13.774-2.587 3.578-6.195 6.074-10.597 7.564l-.036.013zm7.28-30.333c-1.396-1.453-3.068-2.569-5.017-3.348l7.2-.99v-8.55H41.01v19.8h8.37v-7.83h6.84c2.64 0 4.92.24 6.84.72 1.92.42 3.42 1.2 4.5 2.34s1.62 2.79 1.62 4.95c0 2.1-.48 3.72-1.44 4.86-1.02 1.14-2.46 1.92-4.32 2.34-1.86.42-4.05.63-6.57.63H26.34c-2.22 0-4.26-.12-6.12-.36-1.86-.3-3.36-.96-4.5-1.98-1.14-1.08-1.71-2.79-1.71-5.13 0-2.22.45-3.81 1.35-4.77.84-1.02 2.1-1.68 3.78-1.98 1.68-.36 3.69-.54 6.03-.54h4.14v-12.69h-4c-4.404.022-8.14.681-11.21 1.98-3.18 1.26-5.61 3.36-7.29 6.3-1.68 2.94-2.52 6.9-2.52 11.88 0 5.34 1.02 9.54 3.06 12.6 1.98 3 4.86 5.1 8.64 6.3 3.78 1.2 8.28 1.8 13.5 1.8h24.48c5.1 0 9.54-.6 13.32-1.8 3.72-1.26 6.6-3.3 8.64-6.12 2.04-2.82 3.06-6.63 3.06-11.43 0-3.36-.75-6-2.25-7.92a14.354 14.354 0 00-.924-1.062zM61.17 152.636v-12.69l16.83-2.88v-12.33l-72.9 14.58v14.22l72.9 14.58v-12.51l-16.83-2.97zm-26.73-46.571L78 88.245v-8.82H5.1v10.98h41.58L5.1 108.135v9.27H78v-11.34H34.44zm18.27 35.321l-30.6 4.95 30.6 4.95v-9.9zm-4 5.201v-.502l-1.551.251 1.551.251zM82 72.002H1.1v-21.14H82v21.14zm-2.872-33.167l-.011.016c-2.611 3.73-6.18 6.34-10.562 7.8l-.01.004-.009.003c-4.142 1.358-8.776 1.999-13.846 1.999H28.68c-5.286 0-10.046-.635-14.206-2-4.452-1.459-8.038-4.088-10.552-7.897l-.01-.015-.01-.015C1.35 34.787.29 29.73.29 23.957c0-5.403.916-10.155 3.18-13.848 2.151-3.667 5.302-6.293 9.308-7.805C16.5.9 20.688.247 25.26.247h10.12v20.78h-10.3c-1.887 0-3.555.111-5.014.32l-.07.01-.07.007c-1 .107-1.389.392-1.557.561l-.089.088-.02.018a1.35 1.35 0 00-.059.155c-.091.285-.191.815-.191 1.68 0 1.738.419 2.183.448 2.212.291.291.863.664 2.06.863l.01.002.012.002c1.467.253 3.213.392 5.26.392h31.68c2.448 0 4.29-.197 5.614-.514.93-.235 1.407-.56 1.669-.833.18-.293.417-.907.417-2.123 0-.827-.098-1.327-.184-1.592a1.248 1.248 0 00-.056-.144c-.376-.315-.991-.634-2.066-.782-1.524-.21-3.287-.322-5.304-.322H47V.247h9.85c4.665 0 8.952.615 12.805 1.922l.01.003.011.004c4.119 1.423 7.442 3.977 9.852 7.592l.006.008.005.008c2.463 3.734 3.451 8.614 3.451 14.173 0 5.809-1.134 10.903-3.852 14.863l-.01.015zM67.92 28.457c-.9 1.08-2.19 1.83-3.87 2.25-1.74.42-3.93.63-6.57.63H25.8c-2.22 0-4.2-.15-5.94-.45-1.8-.3-3.21-.96-4.23-1.98-1.08-1.08-1.62-2.76-1.62-5.04 0-2.28.51-3.87 1.53-4.77.96-.96 2.28-1.53 3.96-1.71 1.68-.24 3.54-.36 5.58-.36h6.3V4.247h-6.12c-4.2 0-7.89.6-11.07 1.8-3.18 1.2-5.61 3.24-7.29 6.12-1.74 2.82-2.61 6.75-2.61 11.79 0 5.34.99 9.54 2.97 12.6 1.98 3 4.8 5.1 8.46 6.3 3.66 1.2 7.98 1.8 12.96 1.8h26.01c4.74 0 8.94-.6 12.6-1.8 3.6-1.2 6.45-3.3 8.55-6.3 2.1-3.06 3.15-7.26 3.15-12.6 0-5.16-.93-9.15-2.79-11.97-1.92-2.88-4.53-4.89-7.83-6.03-3.36-1.14-7.2-1.71-11.52-1.71H51v12.78h6.57c2.16 0 4.11.12 5.85.36 1.74.24 3.15.84 4.23 1.8 1.02.9 1.53 2.46 1.53 4.68 0 1.92-.42 3.45-1.26 4.59zm-.18 262.393c.96 1.02 1.44 2.64 1.44 4.86 0 2.16-.48 3.78-1.44 4.86-.96 1.08-2.28 1.8-3.96 2.16-1.68.3-3.51.45-5.49.45H24.72c-2.04 0-3.87-.18-5.49-.54-1.62-.36-2.88-1.08-3.78-2.16-.96-1.08-1.44-2.67-1.44-4.77 0-2.22.48-3.84 1.44-4.86.9-1.08 2.16-1.8 3.78-2.16 1.62-.36 3.45-.54 5.49-.54h33.57c1.98 0 3.81.18 5.49.54 1.68.36 3 1.08 3.96 2.16zM78 68.002v-13.14H5.1v13.14H78z" fill="#76A713" fill-opacity=".2"/></svg>